<mxfile host="app.diagrams.net" modified="2023-04-07T07:56:02.836Z" agent="Mozilla/5.0 (Windows NT 10.0; Win64; x64) AppleWebKit/537.36 (KHTML, like Gecko) Chrome/111.0.0.0 Safari/537.36" etag="NMVnCtT-7fhECpUqV8-b" version="21.1.4" type="github">
  <diagram name="第 1 页" id="oCefMYyN6cDlGLFuwyot">
    <mxGraphModel dx="1183" dy="657" grid="1" gridSize="10" guides="1" tooltips="1" connect="1" arrows="1" fold="1" page="1" pageScale="1" pageWidth="827" pageHeight="1169" math="0" shadow="0">
      <root>
        <mxCell id="0" />
        <mxCell id="1" parent="0" />
        <mxCell id="MM35ywBVWWo_K_hnDx4y-1" value="OplusMirageDisplay&lt;br&gt;DeviceFactory" style="shape=umlLifeline;perimeter=lifelinePerimeter;whiteSpace=wrap;html=1;container=0;dropTarget=0;collapsible=0;recursiveResize=0;outlineConnect=0;portConstraint=eastwest;newEdgeStyle={&quot;edgeStyle&quot;:&quot;elbowEdgeStyle&quot;,&quot;elbow&quot;:&quot;vertical&quot;,&quot;curved&quot;:0,&quot;rounded&quot;:0};" vertex="1" parent="1">
          <mxGeometry x="20" y="19" width="130" height="661" as="geometry" />
        </mxCell>
        <mxCell id="MM35ywBVWWo_K_hnDx4y-2" value="" style="html=1;points=[];perimeter=orthogonalPerimeter;outlineConnect=0;targetShapes=umlLifeline;portConstraint=eastwest;newEdgeStyle={&quot;edgeStyle&quot;:&quot;elbowEdgeStyle&quot;,&quot;elbow&quot;:&quot;vertical&quot;,&quot;curved&quot;:0,&quot;rounded&quot;:0};" vertex="1" parent="MM35ywBVWWo_K_hnDx4y-1">
          <mxGeometry x="53" y="66" width="22" height="504" as="geometry" />
        </mxCell>
        <mxCell id="MM35ywBVWWo_K_hnDx4y-8" value="" style="html=1;points=[];perimeter=orthogonalPerimeter;outlineConnect=0;targetShapes=umlLifeline;portConstraint=eastwest;newEdgeStyle={&quot;edgeStyle&quot;:&quot;elbowEdgeStyle&quot;,&quot;elbow&quot;:&quot;vertical&quot;,&quot;curved&quot;:0,&quot;rounded&quot;:0};" vertex="1" parent="MM35ywBVWWo_K_hnDx4y-1">
          <mxGeometry x="70" y="101" width="10" height="40" as="geometry" />
        </mxCell>
        <mxCell id="MM35ywBVWWo_K_hnDx4y-9" value="1. createReal&lt;br style=&quot;border-color: var(--border-color);&quot;&gt;DisplayDevice" style="html=1;align=left;spacingLeft=2;endArrow=block;rounded=0;edgeStyle=orthogonalEdgeStyle;curved=0;rounded=0;" edge="1" target="MM35ywBVWWo_K_hnDx4y-8" parent="MM35ywBVWWo_K_hnDx4y-1">
          <mxGeometry relative="1" as="geometry">
            <mxPoint x="75" y="81" as="sourcePoint" />
            <Array as="points">
              <mxPoint x="105" y="111" />
            </Array>
          </mxGeometry>
        </mxCell>
        <mxCell id="MM35ywBVWWo_K_hnDx4y-10" value="DisplayDevice" style="shape=umlLifeline;perimeter=lifelinePerimeter;whiteSpace=wrap;html=1;container=0;dropTarget=0;collapsible=0;recursiveResize=0;outlineConnect=0;portConstraint=eastwest;newEdgeStyle={&quot;edgeStyle&quot;:&quot;elbowEdgeStyle&quot;,&quot;elbow&quot;:&quot;vertical&quot;,&quot;curved&quot;:0,&quot;rounded&quot;:0};" vertex="1" parent="1">
          <mxGeometry x="190" y="19" width="130" height="291" as="geometry" />
        </mxCell>
        <mxCell id="MM35ywBVWWo_K_hnDx4y-11" value="" style="html=1;points=[];perimeter=orthogonalPerimeter;outlineConnect=0;targetShapes=umlLifeline;portConstraint=eastwest;newEdgeStyle={&quot;edgeStyle&quot;:&quot;elbowEdgeStyle&quot;,&quot;elbow&quot;:&quot;vertical&quot;,&quot;curved&quot;:0,&quot;rounded&quot;:0};" vertex="1" parent="MM35ywBVWWo_K_hnDx4y-10">
          <mxGeometry x="53" y="66" width="22" height="194" as="geometry" />
        </mxCell>
        <mxCell id="MM35ywBVWWo_K_hnDx4y-15" value="" style="html=1;points=[];perimeter=orthogonalPerimeter;outlineConnect=0;targetShapes=umlLifeline;portConstraint=eastwest;newEdgeStyle={&quot;edgeStyle&quot;:&quot;elbowEdgeStyle&quot;,&quot;elbow&quot;:&quot;vertical&quot;,&quot;curved&quot;:0,&quot;rounded&quot;:0};" vertex="1" parent="MM35ywBVWWo_K_hnDx4y-10">
          <mxGeometry x="70" y="211" width="10" height="40" as="geometry" />
        </mxCell>
        <mxCell id="MM35ywBVWWo_K_hnDx4y-16" value="3. getDisplay&lt;br&gt;DeviceInfoLocked" style="html=1;align=left;spacingLeft=2;endArrow=block;rounded=0;edgeStyle=orthogonalEdgeStyle;curved=0;rounded=0;" edge="1" target="MM35ywBVWWo_K_hnDx4y-15" parent="MM35ywBVWWo_K_hnDx4y-10">
          <mxGeometry relative="1" as="geometry">
            <mxPoint x="75" y="191" as="sourcePoint" />
            <Array as="points">
              <mxPoint x="105" y="221" />
            </Array>
          </mxGeometry>
        </mxCell>
        <mxCell id="MM35ywBVWWo_K_hnDx4y-14" value="2. DisplayDevice&amp;nbsp;" style="html=1;verticalAlign=bottom;endArrow=block;edgeStyle=elbowEdgeStyle;elbow=vertical;curved=0;rounded=0;" edge="1" parent="1">
          <mxGeometry y="20" width="80" relative="1" as="geometry">
            <mxPoint x="100" y="200" as="sourcePoint" />
            <mxPoint x="240" y="200" as="targetPoint" />
            <mxPoint as="offset" />
          </mxGeometry>
        </mxCell>
        <mxCell id="MM35ywBVWWo_K_hnDx4y-17" value="DisplayAdapter" style="shape=umlLifeline;perimeter=lifelinePerimeter;whiteSpace=wrap;html=1;container=0;dropTarget=0;collapsible=0;recursiveResize=0;outlineConnect=0;portConstraint=eastwest;newEdgeStyle={&quot;edgeStyle&quot;:&quot;elbowEdgeStyle&quot;,&quot;elbow&quot;:&quot;vertical&quot;,&quot;curved&quot;:0,&quot;rounded&quot;:0};" vertex="1" parent="1">
          <mxGeometry x="360" y="19" width="130" height="661" as="geometry" />
        </mxCell>
        <mxCell id="MM35ywBVWWo_K_hnDx4y-18" value="" style="html=1;points=[];perimeter=orthogonalPerimeter;outlineConnect=0;targetShapes=umlLifeline;portConstraint=eastwest;newEdgeStyle={&quot;edgeStyle&quot;:&quot;elbowEdgeStyle&quot;,&quot;elbow&quot;:&quot;vertical&quot;,&quot;curved&quot;:0,&quot;rounded&quot;:0};" vertex="1" parent="MM35ywBVWWo_K_hnDx4y-17">
          <mxGeometry x="53" y="66" width="22" height="494" as="geometry" />
        </mxCell>
        <mxCell id="MM35ywBVWWo_K_hnDx4y-23" value="4. sendDisplayDeviceEventLocked" style="html=1;verticalAlign=bottom;endArrow=block;edgeStyle=elbowEdgeStyle;elbow=vertical;curved=0;rounded=0;" edge="1" parent="1">
          <mxGeometry width="80" relative="1" as="geometry">
            <mxPoint x="100" y="330" as="sourcePoint" />
            <mxPoint x="410" y="330" as="targetPoint" />
          </mxGeometry>
        </mxCell>
        <mxCell id="MM35ywBVWWo_K_hnDx4y-24" value="DisplayDevice&lt;br&gt;Repository" style="shape=umlLifeline;perimeter=lifelinePerimeter;whiteSpace=wrap;html=1;container=0;dropTarget=0;collapsible=0;recursiveResize=0;outlineConnect=0;portConstraint=eastwest;newEdgeStyle={&quot;edgeStyle&quot;:&quot;elbowEdgeStyle&quot;,&quot;elbow&quot;:&quot;vertical&quot;,&quot;curved&quot;:0,&quot;rounded&quot;:0};" vertex="1" parent="1">
          <mxGeometry x="520" y="19" width="130" height="681" as="geometry" />
        </mxCell>
        <mxCell id="MM35ywBVWWo_K_hnDx4y-25" value="" style="html=1;points=[];perimeter=orthogonalPerimeter;outlineConnect=0;targetShapes=umlLifeline;portConstraint=eastwest;newEdgeStyle={&quot;edgeStyle&quot;:&quot;elbowEdgeStyle&quot;,&quot;elbow&quot;:&quot;vertical&quot;,&quot;curved&quot;:0,&quot;rounded&quot;:0};" vertex="1" parent="MM35ywBVWWo_K_hnDx4y-24">
          <mxGeometry x="53" y="66" width="22" height="574" as="geometry" />
        </mxCell>
        <mxCell id="MM35ywBVWWo_K_hnDx4y-27" value="" style="html=1;points=[];perimeter=orthogonalPerimeter;outlineConnect=0;targetShapes=umlLifeline;portConstraint=eastwest;newEdgeStyle={&quot;edgeStyle&quot;:&quot;elbowEdgeStyle&quot;,&quot;elbow&quot;:&quot;vertical&quot;,&quot;curved&quot;:0,&quot;rounded&quot;:0};" vertex="1" parent="MM35ywBVWWo_K_hnDx4y-24">
          <mxGeometry x="70" y="381" width="10" height="40" as="geometry" />
        </mxCell>
        <mxCell id="MM35ywBVWWo_K_hnDx4y-28" value="6. handleDisplay&lt;br&gt;DeviceAdded" style="html=1;align=left;spacingLeft=2;endArrow=block;rounded=0;edgeStyle=orthogonalEdgeStyle;curved=0;rounded=0;" edge="1" target="MM35ywBVWWo_K_hnDx4y-27" parent="MM35ywBVWWo_K_hnDx4y-24">
          <mxGeometry relative="1" as="geometry">
            <mxPoint x="75" y="361" as="sourcePoint" />
            <Array as="points">
              <mxPoint x="105" y="391" />
            </Array>
          </mxGeometry>
        </mxCell>
        <mxCell id="MM35ywBVWWo_K_hnDx4y-36" value="" style="html=1;points=[];perimeter=orthogonalPerimeter;outlineConnect=0;targetShapes=umlLifeline;portConstraint=eastwest;newEdgeStyle={&quot;edgeStyle&quot;:&quot;elbowEdgeStyle&quot;,&quot;elbow&quot;:&quot;vertical&quot;,&quot;curved&quot;:0,&quot;rounded&quot;:0};" vertex="1" parent="MM35ywBVWWo_K_hnDx4y-24">
          <mxGeometry x="70" y="501" width="10" height="40" as="geometry" />
        </mxCell>
        <mxCell id="MM35ywBVWWo_K_hnDx4y-37" value="8. sendEvent&lt;br&gt;Locked" style="html=1;align=left;spacingLeft=2;endArrow=block;rounded=0;edgeStyle=orthogonalEdgeStyle;curved=0;rounded=0;" edge="1" target="MM35ywBVWWo_K_hnDx4y-36" parent="MM35ywBVWWo_K_hnDx4y-24">
          <mxGeometry relative="1" as="geometry">
            <mxPoint x="75" y="481" as="sourcePoint" />
            <Array as="points">
              <mxPoint x="105" y="511" />
            </Array>
          </mxGeometry>
        </mxCell>
        <mxCell id="MM35ywBVWWo_K_hnDx4y-26" value="5. onDisplay&lt;br&gt;DeviceEvent" style="html=1;verticalAlign=bottom;endArrow=block;edgeStyle=elbowEdgeStyle;elbow=vertical;curved=0;rounded=0;" edge="1" parent="1">
          <mxGeometry width="80" relative="1" as="geometry">
            <mxPoint x="440" y="360" as="sourcePoint" />
            <mxPoint x="570" y="360" as="targetPoint" />
          </mxGeometry>
        </mxCell>
        <mxCell id="MM35ywBVWWo_K_hnDx4y-29" value="DisplayDevice&lt;br&gt;RepositoryExtImpl" style="shape=umlLifeline;perimeter=lifelinePerimeter;whiteSpace=wrap;html=1;container=0;dropTarget=0;collapsible=0;recursiveResize=0;outlineConnect=0;portConstraint=eastwest;newEdgeStyle={&quot;edgeStyle&quot;:&quot;elbowEdgeStyle&quot;,&quot;elbow&quot;:&quot;vertical&quot;,&quot;curved&quot;:0,&quot;rounded&quot;:0};" vertex="1" parent="1">
          <mxGeometry x="670" y="19" width="130" height="611" as="geometry" />
        </mxCell>
        <mxCell id="MM35ywBVWWo_K_hnDx4y-30" value="" style="html=1;points=[];perimeter=orthogonalPerimeter;outlineConnect=0;targetShapes=umlLifeline;portConstraint=eastwest;newEdgeStyle={&quot;edgeStyle&quot;:&quot;elbowEdgeStyle&quot;,&quot;elbow&quot;:&quot;vertical&quot;,&quot;curved&quot;:0,&quot;rounded&quot;:0};" vertex="1" parent="MM35ywBVWWo_K_hnDx4y-29">
          <mxGeometry x="53" y="66" width="22" height="464" as="geometry" />
        </mxCell>
        <mxCell id="MM35ywBVWWo_K_hnDx4y-33" value="7. interceptDisplay&lt;br&gt;DeviceAdded" style="html=1;verticalAlign=bottom;endArrow=block;edgeStyle=elbowEdgeStyle;elbow=vertical;curved=0;rounded=0;" edge="1" parent="1">
          <mxGeometry width="80" relative="1" as="geometry">
            <mxPoint x="600" y="481" as="sourcePoint" />
            <mxPoint x="720" y="481" as="targetPoint" />
          </mxGeometry>
        </mxCell>
        <mxCell id="MM35ywBVWWo_K_hnDx4y-38" value="LogicalDisplayMapper" style="shape=umlLifeline;perimeter=lifelinePerimeter;whiteSpace=wrap;html=1;container=0;dropTarget=0;collapsible=0;recursiveResize=0;outlineConnect=0;portConstraint=eastwest;newEdgeStyle={&quot;edgeStyle&quot;:&quot;elbowEdgeStyle&quot;,&quot;elbow&quot;:&quot;vertical&quot;,&quot;curved&quot;:0,&quot;rounded&quot;:0};" vertex="1" parent="1">
          <mxGeometry x="820" y="19" width="130" height="1261" as="geometry" />
        </mxCell>
        <mxCell id="MM35ywBVWWo_K_hnDx4y-39" value="" style="html=1;points=[];perimeter=orthogonalPerimeter;outlineConnect=0;targetShapes=umlLifeline;portConstraint=eastwest;newEdgeStyle={&quot;edgeStyle&quot;:&quot;elbowEdgeStyle&quot;,&quot;elbow&quot;:&quot;vertical&quot;,&quot;curved&quot;:0,&quot;rounded&quot;:0};" vertex="1" parent="MM35ywBVWWo_K_hnDx4y-38">
          <mxGeometry x="53" y="66" width="22" height="1144" as="geometry" />
        </mxCell>
        <mxCell id="MM35ywBVWWo_K_hnDx4y-41" value="" style="html=1;points=[];perimeter=orthogonalPerimeter;outlineConnect=0;targetShapes=umlLifeline;portConstraint=eastwest;newEdgeStyle={&quot;edgeStyle&quot;:&quot;elbowEdgeStyle&quot;,&quot;elbow&quot;:&quot;vertical&quot;,&quot;curved&quot;:0,&quot;rounded&quot;:0};" vertex="1" parent="MM35ywBVWWo_K_hnDx4y-38">
          <mxGeometry x="70" y="621" width="10" height="40" as="geometry" />
        </mxCell>
        <mxCell id="MM35ywBVWWo_K_hnDx4y-42" value="10. handleDisplay&lt;br&gt;DeviceAddedLocked" style="html=1;align=left;spacingLeft=2;endArrow=block;rounded=0;edgeStyle=orthogonalEdgeStyle;curved=0;rounded=0;" edge="1" target="MM35ywBVWWo_K_hnDx4y-41" parent="MM35ywBVWWo_K_hnDx4y-38">
          <mxGeometry relative="1" as="geometry">
            <mxPoint x="75" y="601" as="sourcePoint" />
            <Array as="points">
              <mxPoint x="105" y="631" />
            </Array>
          </mxGeometry>
        </mxCell>
        <mxCell id="MM35ywBVWWo_K_hnDx4y-43" value="" style="html=1;points=[];perimeter=orthogonalPerimeter;outlineConnect=0;targetShapes=umlLifeline;portConstraint=eastwest;newEdgeStyle={&quot;edgeStyle&quot;:&quot;elbowEdgeStyle&quot;,&quot;elbow&quot;:&quot;vertical&quot;,&quot;curved&quot;:0,&quot;rounded&quot;:0};" vertex="1" parent="MM35ywBVWWo_K_hnDx4y-38">
          <mxGeometry x="70" y="691" width="10" height="40" as="geometry" />
        </mxCell>
        <mxCell id="MM35ywBVWWo_K_hnDx4y-44" value="11. initiallizeDefault&lt;br&gt;DisplayDeviceLocked" style="html=1;align=left;spacingLeft=2;endArrow=block;rounded=0;edgeStyle=orthogonalEdgeStyle;curved=0;rounded=0;" edge="1" target="MM35ywBVWWo_K_hnDx4y-43" parent="MM35ywBVWWo_K_hnDx4y-38">
          <mxGeometry relative="1" as="geometry">
            <mxPoint x="75" y="671" as="sourcePoint" />
            <Array as="points">
              <mxPoint x="105" y="701" />
            </Array>
          </mxGeometry>
        </mxCell>
        <mxCell id="MM35ywBVWWo_K_hnDx4y-45" value="" style="html=1;points=[];perimeter=orthogonalPerimeter;outlineConnect=0;targetShapes=umlLifeline;portConstraint=eastwest;newEdgeStyle={&quot;edgeStyle&quot;:&quot;elbowEdgeStyle&quot;,&quot;elbow&quot;:&quot;vertical&quot;,&quot;curved&quot;:0,&quot;rounded&quot;:0};" vertex="1" parent="MM35ywBVWWo_K_hnDx4y-38">
          <mxGeometry x="70" y="761" width="10" height="40" as="geometry" />
        </mxCell>
        <mxCell id="MM35ywBVWWo_K_hnDx4y-46" value="12. createNew&lt;br&gt;LogicalDisplayLocked" style="html=1;align=left;spacingLeft=2;endArrow=block;rounded=0;edgeStyle=orthogonalEdgeStyle;curved=0;rounded=0;" edge="1" target="MM35ywBVWWo_K_hnDx4y-45" parent="MM35ywBVWWo_K_hnDx4y-38">
          <mxGeometry relative="1" as="geometry">
            <mxPoint x="75" y="741" as="sourcePoint" />
            <Array as="points">
              <mxPoint x="105" y="771" />
            </Array>
          </mxGeometry>
        </mxCell>
        <mxCell id="MM35ywBVWWo_K_hnDx4y-62" value="" style="html=1;points=[];perimeter=orthogonalPerimeter;outlineConnect=0;targetShapes=umlLifeline;portConstraint=eastwest;newEdgeStyle={&quot;edgeStyle&quot;:&quot;elbowEdgeStyle&quot;,&quot;elbow&quot;:&quot;vertical&quot;,&quot;curved&quot;:0,&quot;rounded&quot;:0};" vertex="1" parent="MM35ywBVWWo_K_hnDx4y-38">
          <mxGeometry x="70" y="891" width="10" height="40" as="geometry" />
        </mxCell>
        <mxCell id="MM35ywBVWWo_K_hnDx4y-63" value="15. setDisplayPhase" style="html=1;align=left;spacingLeft=2;endArrow=block;rounded=0;edgeStyle=orthogonalEdgeStyle;curved=0;rounded=0;" edge="1" target="MM35ywBVWWo_K_hnDx4y-62" parent="MM35ywBVWWo_K_hnDx4y-38">
          <mxGeometry relative="1" as="geometry">
            <mxPoint x="75" y="871" as="sourcePoint" />
            <Array as="points">
              <mxPoint x="105" y="901" />
            </Array>
          </mxGeometry>
        </mxCell>
        <mxCell id="MM35ywBVWWo_K_hnDx4y-66" value="" style="html=1;points=[];perimeter=orthogonalPerimeter;outlineConnect=0;targetShapes=umlLifeline;portConstraint=eastwest;newEdgeStyle={&quot;edgeStyle&quot;:&quot;elbowEdgeStyle&quot;,&quot;elbow&quot;:&quot;vertical&quot;,&quot;curved&quot;:0,&quot;rounded&quot;:0};" vertex="1" parent="MM35ywBVWWo_K_hnDx4y-38">
          <mxGeometry x="70" y="967" width="10" height="40" as="geometry" />
        </mxCell>
        <mxCell id="MM35ywBVWWo_K_hnDx4y-67" value="16. applyLayoutLocked&amp;nbsp;" style="html=1;align=left;spacingLeft=2;endArrow=block;rounded=0;edgeStyle=orthogonalEdgeStyle;curved=0;rounded=0;" edge="1" target="MM35ywBVWWo_K_hnDx4y-66" parent="MM35ywBVWWo_K_hnDx4y-38">
          <mxGeometry relative="1" as="geometry">
            <mxPoint x="75" y="947" as="sourcePoint" />
            <Array as="points">
              <mxPoint x="105" y="977" />
            </Array>
          </mxGeometry>
        </mxCell>
        <mxCell id="MM35ywBVWWo_K_hnDx4y-68" value="" style="html=1;points=[];perimeter=orthogonalPerimeter;outlineConnect=0;targetShapes=umlLifeline;portConstraint=eastwest;newEdgeStyle={&quot;edgeStyle&quot;:&quot;elbowEdgeStyle&quot;,&quot;elbow&quot;:&quot;vertical&quot;,&quot;curved&quot;:0,&quot;rounded&quot;:0};" vertex="1" parent="MM35ywBVWWo_K_hnDx4y-38">
          <mxGeometry x="70" y="1045" width="10" height="40" as="geometry" />
        </mxCell>
        <mxCell id="MM35ywBVWWo_K_hnDx4y-69" value="17. updateLogical&lt;br&gt;DisplaysLocked" style="html=1;align=left;spacingLeft=2;endArrow=block;rounded=0;edgeStyle=orthogonalEdgeStyle;curved=0;rounded=0;" edge="1" target="MM35ywBVWWo_K_hnDx4y-68" parent="MM35ywBVWWo_K_hnDx4y-38">
          <mxGeometry relative="1" as="geometry">
            <mxPoint x="75" y="1025" as="sourcePoint" />
            <Array as="points">
              <mxPoint x="105" y="1055" />
            </Array>
          </mxGeometry>
        </mxCell>
        <mxCell id="MM35ywBVWWo_K_hnDx4y-70" value="" style="html=1;points=[];perimeter=orthogonalPerimeter;outlineConnect=0;targetShapes=umlLifeline;portConstraint=eastwest;newEdgeStyle={&quot;edgeStyle&quot;:&quot;elbowEdgeStyle&quot;,&quot;elbow&quot;:&quot;vertical&quot;,&quot;curved&quot;:0,&quot;rounded&quot;:0};" vertex="1" parent="MM35ywBVWWo_K_hnDx4y-38">
          <mxGeometry x="70" y="1121" width="10" height="40" as="geometry" />
        </mxCell>
        <mxCell id="MM35ywBVWWo_K_hnDx4y-71" value="18. sendUpdatesForDisplaysLocked&lt;br&gt;(LOGICAL_DISPLAY_EVENT_ADDED))" style="html=1;align=left;spacingLeft=2;endArrow=block;rounded=0;edgeStyle=orthogonalEdgeStyle;curved=0;rounded=0;" edge="1" target="MM35ywBVWWo_K_hnDx4y-70" parent="MM35ywBVWWo_K_hnDx4y-38">
          <mxGeometry relative="1" as="geometry">
            <mxPoint x="75" y="1101" as="sourcePoint" />
            <Array as="points">
              <mxPoint x="105" y="1131" />
            </Array>
          </mxGeometry>
        </mxCell>
        <mxCell id="MM35ywBVWWo_K_hnDx4y-40" value="9. onDisplayDeviceEventLocked" style="html=1;verticalAlign=bottom;endArrow=block;edgeStyle=elbowEdgeStyle;elbow=vertical;curved=0;rounded=0;" edge="1" parent="1">
          <mxGeometry x="-0.0025" width="80" relative="1" as="geometry">
            <mxPoint x="600" y="600" as="sourcePoint" />
            <mxPoint x="870" y="600" as="targetPoint" />
            <mxPoint as="offset" />
          </mxGeometry>
        </mxCell>
        <mxCell id="MM35ywBVWWo_K_hnDx4y-47" value="LogicalDisplay" style="shape=umlLifeline;perimeter=lifelinePerimeter;whiteSpace=wrap;html=1;container=0;dropTarget=0;collapsible=0;recursiveResize=0;outlineConnect=0;portConstraint=eastwest;newEdgeStyle={&quot;edgeStyle&quot;:&quot;elbowEdgeStyle&quot;,&quot;elbow&quot;:&quot;vertical&quot;,&quot;curved&quot;:0,&quot;rounded&quot;:0};" vertex="1" parent="1">
          <mxGeometry x="1010" y="19" width="130" height="931" as="geometry" />
        </mxCell>
        <mxCell id="MM35ywBVWWo_K_hnDx4y-48" value="" style="html=1;points=[];perimeter=orthogonalPerimeter;outlineConnect=0;targetShapes=umlLifeline;portConstraint=eastwest;newEdgeStyle={&quot;edgeStyle&quot;:&quot;elbowEdgeStyle&quot;,&quot;elbow&quot;:&quot;vertical&quot;,&quot;curved&quot;:0,&quot;rounded&quot;:0};" vertex="1" parent="MM35ywBVWWo_K_hnDx4y-47">
          <mxGeometry x="53" y="66" width="22" height="814" as="geometry" />
        </mxCell>
        <mxCell id="MM35ywBVWWo_K_hnDx4y-58" value="13. LogicalDisplay" style="html=1;verticalAlign=bottom;endArrow=block;edgeStyle=elbowEdgeStyle;elbow=vertical;curved=0;rounded=0;" edge="1" parent="1">
          <mxGeometry width="80" relative="1" as="geometry">
            <mxPoint x="900" y="844" as="sourcePoint" />
            <mxPoint x="1060" y="844" as="targetPoint" />
          </mxGeometry>
        </mxCell>
        <mxCell id="MM35ywBVWWo_K_hnDx4y-59" value="14. updateLocked" style="html=1;verticalAlign=bottom;endArrow=block;edgeStyle=elbowEdgeStyle;elbow=vertical;curved=0;rounded=0;" edge="1" parent="1">
          <mxGeometry width="80" relative="1" as="geometry">
            <mxPoint x="900" y="880" as="sourcePoint" />
            <mxPoint x="1060" y="880" as="targetPoint" />
          </mxGeometry>
        </mxCell>
        <mxCell id="MM35ywBVWWo_K_hnDx4y-72" value="DisplayManagerService" style="shape=umlLifeline;perimeter=lifelinePerimeter;whiteSpace=wrap;html=1;container=0;dropTarget=0;collapsible=0;recursiveResize=0;outlineConnect=0;portConstraint=eastwest;newEdgeStyle={&quot;edgeStyle&quot;:&quot;elbowEdgeStyle&quot;,&quot;elbow&quot;:&quot;vertical&quot;,&quot;curved&quot;:0,&quot;rounded&quot;:0};" vertex="1" parent="1">
          <mxGeometry x="1180" y="19" width="130" height="1471" as="geometry" />
        </mxCell>
        <mxCell id="MM35ywBVWWo_K_hnDx4y-73" value="" style="html=1;points=[];perimeter=orthogonalPerimeter;outlineConnect=0;targetShapes=umlLifeline;portConstraint=eastwest;newEdgeStyle={&quot;edgeStyle&quot;:&quot;elbowEdgeStyle&quot;,&quot;elbow&quot;:&quot;vertical&quot;,&quot;curved&quot;:0,&quot;rounded&quot;:0};" vertex="1" parent="MM35ywBVWWo_K_hnDx4y-72">
          <mxGeometry x="53" y="66" width="22" height="1364" as="geometry" />
        </mxCell>
        <mxCell id="MM35ywBVWWo_K_hnDx4y-75" value="" style="html=1;points=[];perimeter=orthogonalPerimeter;outlineConnect=0;targetShapes=umlLifeline;portConstraint=eastwest;newEdgeStyle={&quot;edgeStyle&quot;:&quot;elbowEdgeStyle&quot;,&quot;elbow&quot;:&quot;vertical&quot;,&quot;curved&quot;:0,&quot;rounded&quot;:0};" vertex="1" parent="MM35ywBVWWo_K_hnDx4y-72">
          <mxGeometry x="70" y="1211" width="10" height="40" as="geometry" />
        </mxCell>
        <mxCell id="MM35ywBVWWo_K_hnDx4y-76" value="20. handleLogicalDisplay&lt;br&gt;AddedLocked" style="html=1;align=left;spacingLeft=2;endArrow=block;rounded=0;edgeStyle=orthogonalEdgeStyle;curved=0;rounded=0;" edge="1" target="MM35ywBVWWo_K_hnDx4y-75" parent="MM35ywBVWWo_K_hnDx4y-72">
          <mxGeometry relative="1" as="geometry">
            <mxPoint x="75" y="1191" as="sourcePoint" />
            <Array as="points">
              <mxPoint x="105" y="1221" />
            </Array>
          </mxGeometry>
        </mxCell>
        <mxCell id="MM35ywBVWWo_K_hnDx4y-77" value="" style="html=1;points=[];perimeter=orthogonalPerimeter;outlineConnect=0;targetShapes=umlLifeline;portConstraint=eastwest;newEdgeStyle={&quot;edgeStyle&quot;:&quot;elbowEdgeStyle&quot;,&quot;elbow&quot;:&quot;vertical&quot;,&quot;curved&quot;:0,&quot;rounded&quot;:0};" vertex="1" parent="MM35ywBVWWo_K_hnDx4y-72">
          <mxGeometry x="70" y="1281" width="10" height="40" as="geometry" />
        </mxCell>
        <mxCell id="MM35ywBVWWo_K_hnDx4y-78" value="21. sendDisplay&lt;br&gt;EventLocked" style="html=1;align=left;spacingLeft=2;endArrow=block;rounded=0;edgeStyle=orthogonalEdgeStyle;curved=0;rounded=0;" edge="1" target="MM35ywBVWWo_K_hnDx4y-77" parent="MM35ywBVWWo_K_hnDx4y-72">
          <mxGeometry relative="1" as="geometry">
            <mxPoint x="75" y="1261" as="sourcePoint" />
            <Array as="points">
              <mxPoint x="105" y="1291" />
            </Array>
          </mxGeometry>
        </mxCell>
        <mxCell id="MM35ywBVWWo_K_hnDx4y-74" value="19. onLogicalDisplayEventLocked" style="html=1;verticalAlign=bottom;endArrow=block;edgeStyle=elbowEdgeStyle;elbow=vertical;curved=0;rounded=0;" edge="1" parent="1">
          <mxGeometry x="-0.002" width="80" relative="1" as="geometry">
            <mxPoint x="900" y="1200" as="sourcePoint" />
            <mxPoint x="1230" y="1200" as="targetPoint" />
            <mxPoint as="offset" />
          </mxGeometry>
        </mxCell>
        <mxCell id="MM35ywBVWWo_K_hnDx4y-79" value="RootWindowContainer" style="shape=umlLifeline;perimeter=lifelinePerimeter;whiteSpace=wrap;html=1;container=0;dropTarget=0;collapsible=0;recursiveResize=0;outlineConnect=0;portConstraint=eastwest;newEdgeStyle={&quot;edgeStyle&quot;:&quot;elbowEdgeStyle&quot;,&quot;elbow&quot;:&quot;vertical&quot;,&quot;curved&quot;:0,&quot;rounded&quot;:0};" vertex="1" parent="1">
          <mxGeometry x="1381" y="19" width="130" height="1621" as="geometry" />
        </mxCell>
        <mxCell id="MM35ywBVWWo_K_hnDx4y-80" value="" style="html=1;points=[];perimeter=orthogonalPerimeter;outlineConnect=0;targetShapes=umlLifeline;portConstraint=eastwest;newEdgeStyle={&quot;edgeStyle&quot;:&quot;elbowEdgeStyle&quot;,&quot;elbow&quot;:&quot;vertical&quot;,&quot;curved&quot;:0,&quot;rounded&quot;:0};" vertex="1" parent="MM35ywBVWWo_K_hnDx4y-79">
          <mxGeometry x="53" y="66" width="22" height="1444" as="geometry" />
        </mxCell>
        <mxCell id="MM35ywBVWWo_K_hnDx4y-89" value="" style="html=1;points=[];perimeter=orthogonalPerimeter;outlineConnect=0;targetShapes=umlLifeline;portConstraint=eastwest;newEdgeStyle={&quot;edgeStyle&quot;:&quot;elbowEdgeStyle&quot;,&quot;elbow&quot;:&quot;vertical&quot;,&quot;curved&quot;:0,&quot;rounded&quot;:0};" vertex="1" parent="MM35ywBVWWo_K_hnDx4y-79">
          <mxGeometry x="70" y="1381" width="10" height="40" as="geometry" />
        </mxCell>
        <mxCell id="MM35ywBVWWo_K_hnDx4y-90" value="&lt;i&gt;&lt;font style=&quot;font-size: 14px;&quot;&gt;23. getDisplay&lt;br&gt;ContentOrCreate&lt;/font&gt;&lt;/i&gt;" style="html=1;align=left;spacingLeft=2;endArrow=block;rounded=0;edgeStyle=orthogonalEdgeStyle;curved=0;rounded=0;" edge="1" target="MM35ywBVWWo_K_hnDx4y-89" parent="MM35ywBVWWo_K_hnDx4y-79">
          <mxGeometry relative="1" as="geometry">
            <mxPoint x="75" y="1361" as="sourcePoint" />
            <Array as="points">
              <mxPoint x="105" y="1391" />
            </Array>
          </mxGeometry>
        </mxCell>
        <mxCell id="MM35ywBVWWo_K_hnDx4y-88" value="22. onDisplayAdded" style="html=1;verticalAlign=bottom;endArrow=block;edgeStyle=elbowEdgeStyle;elbow=vertical;curved=0;rounded=0;" edge="1" parent="1">
          <mxGeometry width="80" relative="1" as="geometry">
            <mxPoint x="1260" y="1367" as="sourcePoint" />
            <mxPoint x="1430" y="1367" as="targetPoint" />
          </mxGeometry>
        </mxCell>
        <mxCell id="MM35ywBVWWo_K_hnDx4y-91" value="OplusMirageWindow&lt;br&gt;ManagerService" style="shape=umlLifeline;perimeter=lifelinePerimeter;whiteSpace=wrap;html=1;container=0;dropTarget=0;collapsible=0;recursiveResize=0;outlineConnect=0;portConstraint=eastwest;newEdgeStyle={&quot;edgeStyle&quot;:&quot;elbowEdgeStyle&quot;,&quot;elbow&quot;:&quot;vertical&quot;,&quot;curved&quot;:0,&quot;rounded&quot;:0};" vertex="1" parent="1">
          <mxGeometry x="1570" y="19" width="130" height="1731" as="geometry" />
        </mxCell>
        <mxCell id="MM35ywBVWWo_K_hnDx4y-92" value="" style="html=1;points=[];perimeter=orthogonalPerimeter;outlineConnect=0;targetShapes=umlLifeline;portConstraint=eastwest;newEdgeStyle={&quot;edgeStyle&quot;:&quot;elbowEdgeStyle&quot;,&quot;elbow&quot;:&quot;vertical&quot;,&quot;curved&quot;:0,&quot;rounded&quot;:0};" vertex="1" parent="MM35ywBVWWo_K_hnDx4y-91">
          <mxGeometry x="53" y="66" width="22" height="1614" as="geometry" />
        </mxCell>
        <mxCell id="MM35ywBVWWo_K_hnDx4y-96" value="" style="html=1;points=[];perimeter=orthogonalPerimeter;outlineConnect=0;targetShapes=umlLifeline;portConstraint=eastwest;newEdgeStyle={&quot;edgeStyle&quot;:&quot;elbowEdgeStyle&quot;,&quot;elbow&quot;:&quot;vertical&quot;,&quot;curved&quot;:0,&quot;rounded&quot;:0};" vertex="1" parent="MM35ywBVWWo_K_hnDx4y-91">
          <mxGeometry x="70" y="1481" width="10" height="40" as="geometry" />
        </mxCell>
        <mxCell id="MM35ywBVWWo_K_hnDx4y-97" value="25. createDisplayLocked" style="html=1;align=left;spacingLeft=2;endArrow=block;rounded=0;edgeStyle=orthogonalEdgeStyle;curved=0;rounded=0;" edge="1" target="MM35ywBVWWo_K_hnDx4y-96" parent="MM35ywBVWWo_K_hnDx4y-91">
          <mxGeometry relative="1" as="geometry">
            <mxPoint x="75" y="1461" as="sourcePoint" />
            <Array as="points">
              <mxPoint x="105" y="1491" />
            </Array>
          </mxGeometry>
        </mxCell>
        <mxCell id="MM35ywBVWWo_K_hnDx4y-98" value="" style="html=1;points=[];perimeter=orthogonalPerimeter;outlineConnect=0;targetShapes=umlLifeline;portConstraint=eastwest;newEdgeStyle={&quot;edgeStyle&quot;:&quot;elbowEdgeStyle&quot;,&quot;elbow&quot;:&quot;vertical&quot;,&quot;curved&quot;:0,&quot;rounded&quot;:0};" vertex="1" parent="MM35ywBVWWo_K_hnDx4y-91">
          <mxGeometry x="69" y="1551" width="10" height="40" as="geometry" />
        </mxCell>
        <mxCell id="MM35ywBVWWo_K_hnDx4y-99" value="26. onMirageDisplayAdded" style="html=1;align=left;spacingLeft=2;endArrow=block;rounded=0;edgeStyle=orthogonalEdgeStyle;curved=0;rounded=0;" edge="1" target="MM35ywBVWWo_K_hnDx4y-98" parent="MM35ywBVWWo_K_hnDx4y-91">
          <mxGeometry relative="1" as="geometry">
            <mxPoint x="74" y="1531" as="sourcePoint" />
            <Array as="points">
              <mxPoint x="104" y="1561" />
            </Array>
          </mxGeometry>
        </mxCell>
        <mxCell id="MM35ywBVWWo_K_hnDx4y-100" value="" style="html=1;points=[];perimeter=orthogonalPerimeter;outlineConnect=0;targetShapes=umlLifeline;portConstraint=eastwest;newEdgeStyle={&quot;edgeStyle&quot;:&quot;elbowEdgeStyle&quot;,&quot;elbow&quot;:&quot;vertical&quot;,&quot;curved&quot;:0,&quot;rounded&quot;:0};" vertex="1" parent="MM35ywBVWWo_K_hnDx4y-91">
          <mxGeometry x="70" y="1631" width="10" height="40" as="geometry" />
        </mxCell>
        <mxCell id="MM35ywBVWWo_K_hnDx4y-101" value="27. moveTopStackToMirageDisplay" style="html=1;align=left;spacingLeft=2;endArrow=block;rounded=0;edgeStyle=orthogonalEdgeStyle;curved=0;rounded=0;" edge="1" target="MM35ywBVWWo_K_hnDx4y-100" parent="MM35ywBVWWo_K_hnDx4y-91">
          <mxGeometry relative="1" as="geometry">
            <mxPoint x="75" y="1611" as="sourcePoint" />
            <Array as="points">
              <mxPoint x="105" y="1641" />
            </Array>
          </mxGeometry>
        </mxCell>
        <mxCell id="MM35ywBVWWo_K_hnDx4y-95" value="24. onDisplayAdded" style="html=1;verticalAlign=bottom;endArrow=block;edgeStyle=elbowEdgeStyle;elbow=vertical;curved=0;rounded=0;" edge="1" parent="1">
          <mxGeometry width="80" relative="1" as="geometry">
            <mxPoint x="1460" y="1470" as="sourcePoint" />
            <mxPoint x="1620" y="1470" as="targetPoint" />
          </mxGeometry>
        </mxCell>
      </root>
    </mxGraphModel>
  </diagram>
</mxfile>
